<?xml version="1.0" encoding="UTF-8"?>
<svg width="56px" height="56px" viewBox="0 0 56 56" version="1.1" xmlns="http://www.w3.org/2000/svg" xmlns:xlink="http://www.w3.org/1999/xlink">
    <title>Facebook Icon</title>
    <g id="Page-1" stroke="none" stroke-width="1" fill="none" fill-rule="evenodd">
        <g id="Extra-Large" transform="translate(-220, -979)">
            <g id="Facebook-Icon" transform="translate(220, 979)">
                <path d="M27.5464687,0.70631969 C34.9581612,0.70631969 41.6681983,3.71051098 46.5253124,8.56762508 C51.3824265,13.4247392 54.3866178,20.1347763 54.3866178,27.5464687 C54.3866178,34.9581612 51.3824265,41.6681983 46.5253124,46.5253124 C41.6681983,51.3824265 34.9581612,54.3866178 27.5464687,54.3866178 C20.1347763,54.3866178 13.4247392,51.3824265 8.56762508,46.5253124 C3.71051098,41.6681983 0.70631969,34.9581612 0.70631969,27.5464687 C0.70631969,20.1347763 3.71051098,13.4247392 8.56762508,8.56762508 C13.4247392,3.71051098 20.1347763,0.70631969 27.5464687,0.70631969 Z" id="Rectangle" stroke="#FFFFFF" stroke-width="1.41263938" opacity="0.25"></path>
                <path d="M24.7928575,27.545629 L22.6022339,27.545629 L22.6022339,23.8941752 L24.7928575,23.8941752 L24.7928575,21.7018578 C24.7928575,18.723004 26.0298267,16.9516602 29.5441908,16.9516602 C29.5441908,16.9516602 30.5194615,16.9516602 32.4700028,16.9516602 L32.4700028,20.6035166 L30.641159,20.6035166 C29.2731082,20.6035166 29.1826088,21.1138255 29.1826088,22.0661704 C29.1826088,22.0661704 29.1809509,22.6753711 29.1776349,23.8937726 L32.4907093,23.8937726 L32.1030316,27.5452052 L29.1776349,27.5452052 L29.1776349,38.1412506 L24.7928575,38.1412506 L24.7928575,27.545629 L24.7928575,27.545629 Z" id="Shape" fill="#FFFFFF"></path>
            </g>
        </g>
    </g>
</svg>