<?xml version="1.0" encoding="UTF-8"?>
<svg width="56px" height="56px" viewBox="0 0 56 56" version="1.1" xmlns="http://www.w3.org/2000/svg" xmlns:xlink="http://www.w3.org/1999/xlink">
    <title>Linkedin Icon</title>
    <g id="Page-1" stroke="none" stroke-width="1" fill="none" fill-rule="evenodd">
        <g id="Extra-Large" transform="translate(-294, -979)">
            <g id="FOOTER" transform="translate(220, 979)">
                <g id="Linkedin-Icon" transform="translate(74.8699, 0)">
                    <path d="M27.5464687,0.70631969 C34.9581612,0.70631969 41.6681983,3.71051098 46.5253124,8.56762508 C51.3824265,13.4247392 54.3866178,20.1347763 54.3866178,27.5464687 C54.3866178,34.9581612 51.3824265,41.6681983 46.5253124,46.5253124 C41.6681983,51.3824265 34.9581612,54.3866178 27.5464687,54.3866178 C20.1347763,54.3866178 13.4247392,51.3824265 8.56762508,46.5253124 C3.71051098,41.6681983 0.70631969,34.9581612 0.70631969,27.5464687 C0.70631969,20.1347763 3.71051098,13.4247392 8.56762508,8.56762508 C13.4247392,3.71051098 20.1347763,0.70631969 27.5464687,0.70631969 Z" id="Rectangle" stroke="#D0FF00" stroke-width="1.41263938" opacity="0.25"></path>
                    <g id="Group-14" transform="translate(18.3643, 16.9517)" fill="#D0FF00">
                        <polygon id="Shape" points="6.10351562e-05 19.7772312 6.10351562e-05 7.06347656 4.23797941 7.06347656 4.23797941 19.7772312"></polygon>
                        <path d="M2.08228424,4.23791838 C0.817596165,4.23791838 0,3.29572317 0,2.11822603 C0,0.915822637 0.842498173,0 2.13118558,0 C3.41986875,0 4.21346983,0.915822637 4.23791838,2.11822603 C4.23791838,3.29572317 3.41986875,4.23791838 2.10635986,4.23791838 C2.10635986,4.23791838 2.09833465,4.23791838 2.08228424,4.23791838 L2.08228424,4.23791838 Z" id="Shape"></path>
                        <path d="M15.6124569,19.7769007 L15.6124569,13.1312685 C15.6124569,11.4620288 15.0098122,10.3229781 13.5022406,10.3229781 C12.3516967,10.3229781 11.6663999,11.0908635 11.3654144,11.8325204 C11.2553006,12.0983268 11.2282712,12.4686658 11.2282712,12.8399074 C11.2282712,12.8399074 11.2282712,15.1523487 11.2282712,19.7772312 L7.06323242,19.7772312 C7.06323242,19.7772312 7.1181177,8.52108311 7.06323242,7.35549879 C7.06323242,7.35549879 8.45157867,7.35549879 11.2282712,7.35549879 L11.2282712,9.11492987 C11.7810016,8.26913463 12.7709454,7.06347656 14.9820454,7.06347656 C17.7224952,7.06347656 19.7769871,8.8392321 19.7769871,12.6546553 C19.7769871,12.6546553 19.776932,15.0287371 19.7768218,19.7769007 L15.6124569,19.7769007 L15.6124569,19.7769007 Z" id="Shape"></path>
                    </g>
                </g>
            </g>
        </g>
    </g>
</svg>