<?xml version="1.0" encoding="utf-8" ?>
<svg xmlns="http://www.w3.org/2000/svg" xmlns:xlink="http://www.w3.org/1999/xlink" width="24" height="24">
	<path fill="none" stroke="white" stroke-width="3" stroke-miterlimit="5" transform="translate(3 3)" d="M18 9Q18 9.2209377 17.989159 9.4416094Q17.978317 9.662281 17.956663 9.8821554Q17.935007 10.102028 17.902588 10.320575Q17.870171 10.53912 17.827066 10.755813Q17.783962 10.972505 17.73028 11.186821Q17.676598 11.401138 17.612463 11.612562Q17.548328 11.823986 17.473896 12.032008Q17.399464 12.24003 17.314915 12.44415Q17.230364 12.64827 17.1359 12.847996Q17.041439 13.047721 16.93729 13.242571Q16.833141 13.43742 16.719555 13.626925Q16.605972 13.816429 16.483225 14.000132Q16.360477 14.183834 16.228865 14.361293Q16.097254 14.538752 15.957092 14.709539Q15.816931 14.880326 15.668558 15.04403Q15.520185 15.207733 15.36396 15.36396Q15.207733 15.520185 15.04403 15.668559Q14.880326 15.816931 14.709539 15.957093Q14.538752 16.097254 14.361293 16.228867Q14.183834 16.360477 14.000132 16.483225Q13.816429 16.605972 13.626925 16.719555Q13.43742 16.833141 13.24257 16.93729Q13.04772 17.041439 12.847995 17.1359Q12.64827 17.230364 12.444149 17.314915Q12.240029 17.399464 12.032007 17.473896Q11.823986 17.548328 11.612562 17.612463Q11.401138 17.676598 11.186821 17.730282Q10.972504 17.783964 10.755812 17.827068Q10.53912 17.870171 10.320574 17.902588Q10.102028 17.935007 9.8821545 17.956663Q9.662281 17.978317 9.4416094 17.989159Q9.2209377 18 9 18Q8.7790623 18 8.5583916 17.989159Q8.337719 17.978317 8.1178455 17.956663Q7.8979716 17.935007 7.6794257 17.902588Q7.4608793 17.870171 7.2441869 17.827066Q7.0274944 17.783962 6.8131781 17.73028Q6.5988617 17.676598 6.3874383 17.612463Q6.1760139 17.548328 5.9679914 17.473896Q5.7599688 17.399464 5.5558491 17.314915Q5.3517294 17.230364 5.1520038 17.1359Q4.9522791 17.041439 4.7574296 16.93729Q4.5625796 16.833141 4.373075 16.719555Q4.1835704 16.605972 3.9998674 16.483225Q3.8161645 16.360477 3.638706 16.228865Q3.4612472 16.097254 3.2904601 15.957092Q3.1196733 15.816931 2.9559693 15.668558Q2.7922654 15.520185 2.6360388 15.36396Q2.4798124 15.207733 2.3314397 15.04403Q2.1830673 14.880326 2.042906 14.709539Q1.9027445 14.538752 1.7711321 14.361293Q1.6395197 14.183834 1.5167732 14.000132Q1.394027 13.816429 1.2804424 13.626925Q1.1668577 13.43742 1.0627085 13.24257Q0.95855922 13.04772 0.86409616 12.847995Q0.76963323 12.64827 0.6850841 12.444149Q0.60053492 12.240029 0.52610332 12.032007Q0.45167172 11.823986 0.38753694 11.612562Q0.32340217 11.401138 0.26971871 11.186821Q0.21603525 10.972504 0.17293245 10.755812Q0.12982966 10.53912 0.097411394 10.320574Q0.064993128 10.102028 0.043337457 9.8821545Q0.021681786 9.662281 0.010840893 9.4416094Q0 9.2209377 0 9Q0 8.7790623 0.010840893 8.5583916Q0.021681786 8.337719 0.043337457 8.1178455Q0.064993128 7.8979716 0.097411394 7.6794257Q0.12982966 7.4608793 0.17293245 7.2441869Q0.21603525 7.0274944 0.26971871 6.8131781Q0.32340217 6.5988617 0.38753694 6.3874383Q0.45167172 6.1760139 0.52610338 5.9679914Q0.60053492 5.7599688 0.6850841 5.5558491Q0.76963323 5.3517294 0.86409622 5.1520038Q0.95855927 4.9522791 1.0627086 4.7574296Q1.1668578 4.5625796 1.2804425 4.373075Q1.394027 4.1835704 1.5167733 3.9998674Q1.6395197 3.8161645 1.771132 3.638706Q1.9027444 3.4612472 2.0429058 3.2904601Q2.1830671 3.1196733 2.3314397 2.9559693Q2.4798124 2.7922654 2.6360388 2.6360388Q2.7922654 2.4798124 2.9559693 2.3314397Q3.1196733 2.1830673 3.2904601 2.042906Q3.4612472 1.9027445 3.6387057 1.7711321Q3.8161645 1.6395197 3.9998674 1.5167732Q4.1835699 1.394027 4.3730745 1.2804424Q4.5625792 1.1668577 4.7574291 1.0627085Q4.9522781 0.95855922 5.1520033 0.86409616Q5.3517284 0.76963323 5.5558486 0.6850841Q5.7599683 0.60053492 5.9679909 0.52610332Q6.1760139 0.45167172 6.3874383 0.38753694Q6.5988617 0.32340217 6.8131781 0.26971871Q7.0274944 0.21603525 7.2441869 0.17293245Q7.4608793 0.12982966 7.6794257 0.097411394Q7.8979721 0.064993128 8.1178465 0.043337457Q8.3377199 0.021681786 8.5583916 0.010840893Q8.7790623 0 9 0Q9.2209377 0 9.4416094 0.010840893Q9.662281 0.021681786 9.8821554 0.043337457Q10.102028 0.064993128 10.320575 0.097411394Q10.53912 0.12982966 10.755813 0.17293245Q10.972505 0.21603525 11.186821 0.26971871Q11.401138 0.32340217 11.612562 0.38753694Q11.823986 0.45167172 12.032008 0.52610338Q12.24003 0.60053492 12.44415 0.6850841Q12.64827 0.76963323 12.847996 0.86409622Q13.047721 0.95855927 13.242571 1.0627086Q13.43742 1.1668578 13.626925 1.2804425Q13.816429 1.394027 14.000132 1.5167733Q14.183834 1.6395197 14.361293 1.771132Q14.538752 1.9027444 14.709539 2.0429058Q14.880326 2.1830671 15.04403 2.3314397Q15.207733 2.4798124 15.36396 2.6360388Q15.520185 2.7922654 15.668559 2.9559693Q15.816931 3.1196733 15.957093 3.2904601Q16.097254 3.4612472 16.228867 3.6387057Q16.360477 3.8161645 16.483225 3.9998674Q16.605972 4.1835699 16.719555 4.3730745Q16.833141 4.5625792 16.93729 4.7574291Q17.041439 4.9522781 17.1359 5.1520033Q17.230364 5.3517284 17.314915 5.5558486Q17.399464 5.7599683 17.473896 5.9679909Q17.548328 6.1760139 17.612463 6.3874383Q17.676598 6.5988617 17.730282 6.8131781Q17.783964 7.0274944 17.827068 7.2441869Q17.870171 7.4608793 17.902588 7.6794257Q17.935007 7.8979721 17.956663 8.1178465Q17.978317 8.3377199 17.989159 8.5583916Q18 8.7790623 18 9Z"/>
	<path fill="white" transform="translate(10.2 4.8)" d="M1.8119999 5.5599999Q1.3679999 5.5599999 1.074 5.2779999Q0.77999997 4.9959998 0.77999997 4.5760002Q0.77999997 4.1560001 1.074 3.8740001Q1.3679999 3.592 1.8119999 3.592Q2.256 3.592 2.55 3.8740001Q2.8439999 4.1560001 2.8439999 4.5760002Q2.8439999 4.9959998 2.55 5.2779999Q2.256 5.5599999 1.8119999 5.5599999ZM2.6399999 6.3520002L2.6399999 13L0.95999998 13L0.95999998 6.3520002L2.6399999 6.3520002Z"/>
</svg>
