<svg width="25" height="24" viewBox="0 0 25 24" fill="none" xmlns="http://www.w3.org/2000/svg">
<g clip-path="url(#clip0_1_953)">
<path d="M7.3601 0.0839251C6.0833 0.144165 5.21138 0.347925 4.44914 0.647445C3.66026 0.954885 2.99162 1.36745 2.32634 2.03513C1.66106 2.70281 1.25138 3.37193 0.946097 4.16201C0.650657 4.92593 0.450497 5.79857 0.394097 7.07609C0.337697 8.35361 0.325217 8.76425 0.331457 12.023C0.337697 15.2817 0.352097 15.6902 0.414017 16.9703C0.474977 18.2469 0.678017 19.1186 0.977537 19.881C1.28546 20.6699 1.69754 21.3383 2.36546 22.0038C3.03338 22.6694 3.70202 23.0781 4.49402 23.3838C5.25722 23.6788 6.1301 23.8799 7.40738 23.9358C8.68466 23.9918 9.09578 24.0047 12.3535 23.9985C15.6113 23.9922 16.0215 23.9778 17.3014 23.9171C18.5813 23.8564 19.4484 23.6519 20.2111 23.3538C21 23.0452 21.6689 22.6338 22.3339 21.9657C22.999 21.2975 23.4084 20.6279 23.7135 19.8374C24.0091 19.0742 24.21 18.2013 24.2655 16.925C24.3214 15.6441 24.3346 15.2351 24.3283 11.9769C24.3221 8.71865 24.3075 8.31017 24.2467 7.03049C24.186 5.75081 23.9827 4.88177 23.6835 4.11881C23.3751 3.32993 22.9635 2.66201 22.2958 1.99601C21.6281 1.33001 20.958 0.920805 20.1677 0.616485C19.404 0.321045 18.5316 0.119685 17.2543 0.0644851C15.9771 0.00928514 15.5659 -0.00487487 12.307 0.00136513C9.04802 0.00760513 8.64002 0.0215251 7.3601 0.0839251ZM7.50026 21.777C6.33026 21.7262 5.69498 21.5318 5.27162 21.369C4.71098 21.153 4.31162 20.8919 3.8897 20.4741C3.46778 20.0562 3.20858 19.6554 2.9897 19.096C2.8253 18.6726 2.6273 18.0381 2.57258 16.8681C2.51306 15.6035 2.50058 15.2238 2.49362 12.0201C2.48666 8.81633 2.4989 8.43713 2.55434 7.17209C2.60426 6.00305 2.79986 5.36705 2.96234 4.94393C3.17834 4.38257 3.4385 3.98393 3.8573 3.56225C4.2761 3.14057 4.6757 2.88089 5.23562 2.66201C5.6585 2.49689 6.29306 2.30057 7.46258 2.24489C8.7281 2.18489 9.1073 2.17289 12.3106 2.16593C15.5139 2.15897 15.894 2.17097 17.16 2.22664C18.3291 2.27753 18.9653 2.4712 19.3879 2.63464C19.9488 2.85065 20.3479 3.11009 20.7696 3.52961C21.1913 3.94913 21.4512 4.34729 21.6701 4.90841C21.8355 5.33009 22.0318 5.96441 22.087 7.13465C22.1472 8.40017 22.1609 8.7796 22.1667 11.9826C22.1724 15.1857 22.1611 15.5661 22.1057 16.8306C22.0546 18.0006 21.8607 18.6362 21.6977 19.06C21.4817 19.6204 21.2213 20.02 20.8023 20.4414C20.3832 20.8629 19.9841 21.1226 19.4239 21.3414C19.0015 21.5063 18.3663 21.7031 17.1977 21.7588C15.9322 21.8183 15.553 21.8308 12.3485 21.8378C9.14402 21.8447 8.76602 21.8318 7.5005 21.777M17.2829 5.58641C17.2834 5.87123 17.3683 6.14952 17.5269 6.38607C17.6856 6.62262 17.9108 6.80681 18.1742 6.91535C18.4375 7.02389 18.7271 7.05189 19.0064 6.99583C19.2856 6.93976 19.542 6.80214 19.743 6.60037C19.944 6.3986 20.0807 6.14174 20.1357 5.86228C20.1908 5.58283 20.1617 5.29333 20.0522 5.03039C19.9427 4.76746 19.7577 4.5429 19.5206 4.38512C19.2834 4.22735 19.0048 4.14344 18.72 4.14401C18.3382 4.14477 17.9723 4.29715 17.7028 4.56764C17.4333 4.83813 17.2823 5.20458 17.2829 5.58641ZM6.1685 12.0119C6.17522 15.4151 8.93906 18.1677 12.3415 18.1612C15.744 18.1547 18.4985 15.3911 18.492 11.9879C18.4855 8.58473 15.721 5.83145 12.318 5.83817C8.91506 5.84489 6.16202 8.60921 6.1685 12.0119ZM8.32994 12.0076C8.32837 11.2165 8.56144 10.4426 8.99967 9.78395C9.43791 9.12527 10.0616 8.61134 10.7919 8.30714C11.5223 8.00294 12.3264 7.92213 13.1026 8.07494C13.8789 8.22774 14.5924 8.6073 15.1529 9.16561C15.7134 9.72393 16.0958 10.4359 16.2517 11.2115C16.4076 11.9872 16.3299 12.7916 16.0286 13.5231C15.7273 14.2547 15.2159 14.8804 14.5589 15.3212C13.902 15.7621 13.1291 15.9982 12.3379 15.9998C11.8126 16.0009 11.2922 15.8985 10.8065 15.6984C10.3208 15.4984 9.87918 15.2046 9.50699 14.8339C9.1348 14.4632 8.83929 14.0228 8.63733 13.5378C8.43536 13.0529 8.33091 12.5329 8.32994 12.0076Z" fill="white"/>
</g>
<defs>
<clipPath id="clip0_1_953">
<rect width="24" height="24" fill="white" transform="translate(0.330017)"/>
</clipPath>
</defs>
</svg>
