<svg width="49" height="48" viewBox="0 0 49 48" fill="none" xmlns="http://www.w3.org/2000/svg">
<path d="M35.9677 17.1428H12.7514C8.69376 17.1428 5.40442 20.4322 5.40442 24.4898C5.40442 28.5474 8.69376 31.8367 12.7514 31.8367H35.9677C40.0253 31.8367 43.3146 28.5474 43.3146 24.4898C43.3146 20.4322 40.0253 17.1428 35.9677 17.1428Z" fill="white"/>
<path fill-rule="evenodd" clip-rule="evenodd" d="M13.2678 20.0815H10.6941V28.8979H13.2678V27.0213L13.9277 26.1019L15.4343 28.8979H18.5026H21.4309V20.0815H18.5026V28.8979L15.7644 23.9105L18.4479 20.0815H15.4564L13.2678 23.3814V20.0815ZM27.5257 24.5023C27.5257 25.7743 26.7389 26.3285 25.5193 26.3285H25.0747V22.651H25.5193C26.7389 22.651 27.5257 23.2051 27.5257 24.4771V24.5023ZM25.462 20.0815H22.4072V28.8979H25.371C28.597 28.8979 30.2159 27.0464 30.2159 24.4393V24.4143C30.2159 21.8071 28.6313 20.0815 25.462 20.0815ZM31.6773 25.6556L30.2161 27.465C31.2564 28.4123 32.7527 28.8979 34.4128 28.8979C36.6103 28.8979 38.0249 27.805 38.0249 26.0199V25.9956C38.0249 24.2833 36.622 23.6519 34.5295 23.251C33.6645 23.081 33.4425 22.9354 33.4425 22.7046V22.6804C33.4425 22.4739 33.6295 22.3282 34.0386 22.3282C34.7985 22.3282 35.722 22.5832 36.4934 23.1661L37.8259 21.2474C36.8792 20.4701 35.7102 20.0815 34.1321 20.0815C31.876 20.0815 30.6603 21.3324 30.6603 22.9475V22.9719C30.6603 24.7692 32.2735 25.3156 34.1089 25.7042C34.9854 25.8863 35.2428 26.0199 35.2428 26.2627V26.2871C35.2428 26.5178 35.0322 26.6513 34.5413 26.6513C33.5826 26.6513 32.5656 26.3599 31.6773 25.6556Z" fill="black"/>
</svg>
