<svg width="21" height="20" viewBox="0 0 21 20" fill="none" xmlns="http://www.w3.org/2000/svg">
<g clip-path="url(#clip0_1_948)">
<path d="M12.076 14.6501C12.016 16.1941 10.718 17.4321 9.12399 17.4321C8.75999 17.4321 8.41199 17.3681 8.08799 17.2481C8.40999 17.3661 8.75799 17.4321 9.12399 17.4321C10.718 17.4321 12.018 16.1941 12.076 14.6501L12.082 0.870094H14.658C14.906 2.18009 15.702 3.30409 16.804 4.00609C16.804 4.00609 16.804 4.00609 16.806 4.00809C17.574 4.49609 18.488 4.78209 19.47 4.78209V5.54809V8.22009C17.646 8.22009 15.956 7.65009 14.576 6.68209V13.6701C14.576 17.1601 11.672 19.9981 8.09999 19.9981C6.71999 19.9981 5.43999 19.5721 4.38799 18.8501L4.38599 18.8481C2.71799 17.7021 1.62399 15.8081 1.62399 13.6681C1.62399 10.1781 4.52799 7.34009 8.09999 7.34009C8.39599 7.34009 8.68599 7.36409 8.97199 7.40209V8.21609C5.71399 8.29009 3.04399 10.7261 2.68999 13.8361C3.04399 10.7261 5.71599 8.29209 8.97199 8.21609V10.9121C8.69599 10.8281 8.40399 10.7781 8.09999 10.7781C6.46999 10.7781 5.14199 12.0741 5.14199 13.6681C5.14199 14.7781 5.78599 15.7421 6.72799 16.2261C7.13799 16.4381 7.60399 16.5581 8.09999 16.5581C9.69399 16.5581 10.992 15.3201 11.052 13.7761L11.058 -0.00390625H14.576C14.576 0.294094 14.606 0.586094 14.66 0.868094H12.082L12.076 14.6501Z" fill="white"/>
</g>
<defs>
<clipPath id="clip0_1_948">
<rect width="20" height="20" fill="white" transform="translate(0.549988)"/>
</clipPath>
</defs>
</svg>
