<svg width="49" height="48" viewBox="0 0 49 48" fill="none" xmlns="http://www.w3.org/2000/svg">
<path fill-rule="evenodd" clip-rule="evenodd" d="M32.3244 16.602C33.1674 16.8435 33.8313 17.5546 34.0566 18.4578C34.4659 20.0947 34.4659 23.5103 34.4659 23.5103C34.4659 23.5103 34.4659 26.9258 34.0566 28.5626C33.8313 29.4658 33.1674 30.1771 32.3244 30.4185C30.7966 30.8572 24.67 30.8572 24.67 30.8572C24.67 30.8572 18.5434 30.8572 17.0156 30.4185C16.1726 30.1771 15.5086 29.4658 15.2833 28.5626C14.8741 26.9258 14.8741 23.5103 14.8741 23.5103C14.8741 23.5103 14.8741 20.0947 15.2833 18.4578C15.5086 17.5546 16.1726 16.8435 17.0156 16.602C18.5434 16.1633 24.67 16.1633 24.67 16.1633C24.67 16.1633 30.7966 16.1633 32.3244 16.602ZM27.8009 23.5103L22.7108 20.3616V26.659L27.8009 23.5103Z" fill="white"/>
</svg>
