<?xml version="1.0" encoding="UTF-8"?>
<svg id="Capa_1" xmlns="http://www.w3.org/2000/svg" version="1.1" viewBox="0 0 143 24">
  <!-- Generator: Adobe Illustrator 30.0.0, SVG Export Plug-In . SVG Version: 2.1.1 Build 123)  -->
  <defs>
    <style>
      .st0 {
        fill: #3767ea;
      }

      .st1 {
        isolation: isolate;
      }

      .st2 {
        fill: #fff;
      }
    </style>
  </defs>
  <g id="Page-1">
    <g id="Dropbox_Cloud">
      <g id="Card">
        <g id="Item">
          <g id="logo_pro">
            <path id="Forma" d="M0,2.33h6.36c4.05,0,7.4,2.35,7.4,7.7v1.13c0,5.4-3.13,7.82-7.28,7.82H0V2.33ZM3.55,5.35v10.59h2.73c2.3,0,3.85-1.5,3.85-4.85v-.88c0-3.35-1.63-4.85-3.97-4.85h-2.6ZM15.65,5.51h2.85l.46,3.13c.54-2.13,1.93-3.27,4.43-3.27h.88v3.59h-1.46c-2.89,0-3.59,1-3.59,3.85v6.2h-3.51V5.51h-.05ZM24.97,12.54v-.38c0-4.51,2.89-6.98,6.82-6.98s6.82,2.47,6.82,6.98v.38c0,4.43-2.73,6.82-6.82,6.82-4.35-.04-6.82-2.37-6.82-6.82ZM35.02,12.5v-.34c0-2.51-1.26-4.01-3.27-4.01s-3.27,1.38-3.27,4.01v.34c0,2.43,1.26,3.81,3.27,3.81,2.01-.04,3.27-1.38,3.27-3.81ZM40.46,5.51h2.93l.34,2.55c.71-1.71,2.21-2.89,4.43-2.89,3.43,0,5.69,2.47,5.69,7.04v.38c0,4.43-2.51,6.78-5.69,6.78-2.13,0-3.59-.96-4.31-2.51v6.82h-3.43l.04-18.17h0ZM50.29,12.5v-.3c0-2.68-1.38-4.01-3.23-4.01-1.97,0-3.27,1.5-3.27,4.01v.26c0,2.39,1.26,3.89,3.23,3.89,2.02-.04,3.27-1.33,3.27-3.85ZM59.05,16.52l-.3,2.47h-3.01V1h3.43v6.9c.76-1.76,2.26-2.73,4.39-2.73,3.23.04,5.61,2.26,5.61,6.74v.42c0,4.47-2.26,7.04-5.69,7.04-2.26-.05-3.73-1.1-4.43-2.85ZM65.57,12.33v-.34c0-2.47-1.34-3.85-3.23-3.85s-3.27,1.55-3.27,3.89v.3c0,2.51,1.3,3.97,3.23,3.97,2.06,0,3.27-1.29,3.27-3.97ZM70.68,12.54v-.38c0-4.51,2.89-6.98,6.82-6.98s6.82,2.47,6.82,6.98v.38c0,4.43-2.77,6.82-6.82,6.82-4.35-.04-6.82-2.37-6.82-6.82ZM80.75,12.5v-.34c0-2.51-1.26-4.01-3.27-4.01s-3.27,1.38-3.27,4.01v.34c0,2.43,1.26,3.81,3.27,3.81,2.02-.04,3.27-1.38,3.27-3.81ZM88.92,12l-4.73-6.48h4.05l2.73,4.05,2.77-4.05h4.01l-4.8,6.44,5.06,7.04h-3.97l-3.09-4.47-3.01,4.47h-4.15l5.14-7Z"/>
            <rect id="Rectángulo" class="st2" x="102" width="41" height="24" rx="6" ry="6"/>
            <g id="PRO" class="st1">
              <g class="st1">
                <path class="st0" d="M109.34,17V6.81h3.49c.79,0,1.45.14,1.96.43.51.29.89.68,1.14,1.17s.37,1.03.37,1.64-.12,1.16-.37,1.65-.63.88-1.14,1.18c-.51.29-1.16.44-1.96.44h-2.47v-1.14h2.41c.54,0,.97-.09,1.3-.28.33-.18.57-.44.71-.76.15-.32.22-.68.22-1.08s-.07-.76-.22-1.08c-.15-.32-.39-.57-.72-.75s-.77-.27-1.31-.27h-2.12v9.04h-1.3Z"/>
                <path class="st0" d="M118.28,17V6.81h3.49c.79,0,1.45.14,1.96.41.51.27.89.64,1.14,1.12s.37,1.01.37,1.62-.12,1.14-.37,1.61-.63.83-1.14,1.09c-.51.26-1.16.39-1.96.39h-2.77v-1.16h2.71c.54,0,.97-.08,1.29-.24.33-.16.56-.38.71-.67.15-.29.22-.63.22-1.03s-.07-.76-.22-1.06c-.15-.3-.39-.53-.72-.7-.33-.17-.76-.25-1.3-.25h-2.12v9.04h-1.3ZM124.13,17l-2.46-4.59h1.46l2.5,4.59h-1.5Z"/>
                <path class="st0" d="M131.42,17.14c-.87,0-1.65-.21-2.33-.63-.68-.42-1.22-1.02-1.61-1.8-.39-.78-.59-1.71-.59-2.79s.2-2.01.59-2.79c.39-.78.93-1.38,1.61-1.81s1.46-.64,2.33-.64,1.64.21,2.32.64c.68.42,1.21,1.03,1.6,1.81.39.78.58,1.71.58,2.79s-.2,2-.58,2.79c-.39.78-.92,1.38-1.6,1.8-.68.42-1.45.63-2.32.63ZM131.42,15.93c.61,0,1.15-.15,1.64-.46.49-.31.88-.76,1.17-1.36.29-.6.43-1.33.43-2.2s-.14-1.61-.43-2.21c-.29-.6-.68-1.05-1.17-1.36-.49-.31-1.04-.46-1.64-.46s-1.16.16-1.65.46-.88.76-1.17,1.36c-.29.6-.43,1.33-.43,2.21s.14,1.6.43,2.19.68,1.05,1.17,1.36,1.04.46,1.65.46Z"/>
              </g>
            </g>
          </g>
        </g>
      </g>
    </g>
  </g>
</svg>