<?xml version="1.0" encoding="UTF-8"?>
<svg width="11px" height="10px" viewBox="0 0 11 10" version="1.1" xmlns="http://www.w3.org/2000/svg" xmlns:xlink="http://www.w3.org/1999/xlink">
    <title>medium-volume</title>
    <g id="Page-1" stroke="none" stroke-width="1" fill="none" fill-rule="evenodd">
        <g id="Monitor-13&quot;" fill-rule="nonzero" transform="translate(-913, -559)" fill="#FFFFFF">
            <g id="animais" fill-rule="evenodd" transform="translate(438, 321)">
                <g id="pinguino" fill-rule="nonzero" transform="translate(447, 145)">
                    <g id="boton" transform="translate(6, 89)" fill-rule="evenodd">
                        <g id="medium-volume" transform="translate(22, 4)">
                            <path d="M8.34916863,6 C8.29955678,6 8.24925347,5.98748411 8.20154312,5.96124125 C8.02902527,5.86575758 7.95521252,5.62513071 8.036977,5.42366624 C8.21727372,4.97854686 8.30854568,4.50112852 8.30854568,4.00433087 C8.30854568,3.50450519 8.21606367,3.02446264 8.03369259,2.57752645 C7.95158239,2.37606198 8.0247037,2.13523324 8.19704868,2.03934584 C8.36887507,1.94345844 8.57561989,2.02884869 8.65790296,2.23011129 C8.88469997,2.78646003 9,3.38338429 9,4.00433087 C9,4.62144196 8.88625576,5.21513635 8.66187882,5.76886082 C8.60275948,5.91460966 8.47864345,6 8.34916863,6 Z" id="Path" fill-rule="nonzero"></path>
                            <path d="M9.62723047,9 C9.54324821,9 9.45813107,8.97483312 9.38209307,8.92229986 C9.1712295,8.7761841 9.1103991,8.47393459 9.24590561,8.24694204 C9.79950759,7.32015765 10.0923107,6.2448138 10.0923107,5.1369729 C10.0923107,3.92064476 9.74435169,2.75807148 9.08565838,1.77435565 C8.93902989,1.55542634 8.98533362,1.25000045 9.18870689,1.09215634 C9.39230713,0.934312224 9.67580403,0.984402061 9.82243252,1.20284268 C10.5930265,2.35393187 11,3.71417677 11,5.1369729 C11,6.43271184 10.6572616,7.69082248 10.0090094,8.77569532 C9.92253033,8.92083372 9.77635573,9 9.62723047,9 Z" id="Path" fill-rule="nonzero"></path>
                            <path d="M6.44651747,0.0889553726 C6.78782782,0.241725013 7,0.558699161 7,0.916381359 L7,9.08429718 C7,9.43488976 6.79386202,9.74911934 6.46220684,9.90440464 C6.32534477,9.96843982 6.17882781,10 6.03327608,10 C5.82617263,10 5.6207584,9.9359646 5.44793081,9.81086731 L2.25037932,7.49416637 L1.20689654,7.49416637 C0.541413784,7.49416637 0,6.98119861 0,6.35068083 L0,3.83501315 C0,3.20449537 0.541413784,2.69152784 1.20689654,2.69152784 L2.24048281,2.69152784 L5.42065525,0.210164815 C5.71224147,-0.0171600729 6.10520712,-0.0640429556 6.44651747,0.0889553726 Z M5.8370344,1.0702945 L2.72058624,3.50203025 C2.63417245,3.56949589 2.52579303,3.60631621 2.41379303,3.60631621 L1.20689653,3.60631621 C1.07365514,3.60631621 0.965517223,3.7087725 0.965517223,3.83501327 L0.965517223,6.35068119 C0.965517223,6.47692196 1.07365514,6.57937801 1.20689653,6.57937801 L2.41379303,6.57937801 C2.51975854,6.57937801 2.6228276,6.61231051 2.70706898,6.67337263 L5.84041375,8.94364822 C5.88241375,8.97406493 5.93455176,8.97337881 5.97413796,8.95188129 C6.00913796,8.93267074 6.03448266,8.89722279 6.03448266,8.85285556 L6.03448266,1.15857156 C6.03448266,1.11397564 6.00913796,1.07852759 5.97413796,1.05954573 C5.93334486,1.03736212 5.87951716,1.03713342 5.8370344,1.0702945 Z" id="Shape" fill-rule="nonzero"></path>
                        </g>
                    </g>
                </g>
            </g>
        </g>
    </g>
</svg>